<svg width="134" height="134" viewBox="0 0 134 134" fill="none" xmlns="http://www.w3.org/2000/svg">
<rect width="134" height="134" fill="#1E1E1E"/>
<path fill-rule="evenodd" clip-rule="evenodd" d="M57.9376 94.3626C71.245 94.3626 82.0327 83.5748 82.0327 70.2675C82.0327 56.9601 71.245 46.1724 57.9376 46.1724C44.6303 46.1724 33.8426 56.9601 33.8426 70.2675C33.8426 83.5748 44.6303 94.3626 57.9376 94.3626ZM57.9376 106.488C77.9417 106.488 94.1583 90.2716 94.1583 70.2675C94.1583 50.2634 77.9417 34.0469 57.9376 34.0469C37.9336 34.0469 21.717 50.2634 21.717 70.2675C21.717 90.2716 37.9336 106.488 57.9376 106.488Z" fill="#7B7B7B"/>
<path fill-rule="evenodd" clip-rule="evenodd" d="M67.8585 89.9534C81.1659 89.9534 91.9536 79.1656 91.9536 65.8583C91.9536 52.551 81.1659 41.7632 67.8585 41.7632C54.5512 41.7632 43.7635 52.551 43.7635 65.8583C43.7635 79.1656 54.5512 89.9534 67.8585 89.9534ZM67.8585 102.079C87.8626 102.079 104.079 85.8624 104.079 65.8583C104.079 45.8542 87.8626 29.6377 67.8585 29.6377C47.8545 29.6377 31.6379 45.8542 31.6379 65.8583C31.6379 85.8624 47.8545 102.079 67.8585 102.079Z" fill="#A9A9A9"/>
<path fill-rule="evenodd" clip-rule="evenodd" d="M77.7794 85.5442C91.0868 85.5442 101.875 74.7565 101.875 61.4491C101.875 48.1418 91.0868 37.354 77.7794 37.354C64.4721 37.354 53.6844 48.1418 53.6844 61.4491C53.6844 74.7565 64.4721 85.5442 77.7794 85.5442ZM77.7794 97.6697C97.7835 97.6697 114 81.4532 114 61.4491C114 41.445 97.7835 25.2285 77.7794 25.2285C57.7754 25.2285 41.5588 41.445 41.5588 61.4491C41.5588 81.4532 57.7754 97.6697 77.7794 97.6697Z" fill="#F3F3F3"/>
</svg>
